<?xml version="1.0" ?><!DOCTYPE svg  PUBLIC '-//W3C//DTD SVG 1.1//EN'  'http://www.w3.org/Graphics/SVG/1.1/DTD/svg11.dtd'><svg xmlns="http://www.w3.org/2000/svg" xmlns:xlink="http://www.w3.org/1999/xlink" version="1.1" id="Layer_1" width="512px" height="512px" viewBox="0 0 512 512" enable-background="new 0 0 512 512" xml:space="preserve"><g><path fill="#FCB556" d="M421.939,426.415c0,32.772-26.813,59.586-59.585,59.586H151.421c-32.772,0-59.585-26.813-59.585-59.586   V85.586C91.836,52.814,118.649,26,151.421,26h210.933c32.772,0,59.585,26.813,59.585,59.585V426.415z"/><rect x="421.939" y="85.586" fill="#547DBF" width="45.682" height="64.352"/><rect x="421.939" y="223.824" fill="#33A851" width="45.682" height="64.352"/><rect x="421.939" y="362.062" fill="#EA4335" width="45.682" height="64.352"/><g><g><path fill="#41464A" d="M126.792,123.112H56.879c-6.904,0-12.5-5.597-12.5-12.5s5.596-12.5,12.5-12.5h69.914     c6.904,0,12.5,5.597,12.5,12.5S133.696,123.112,126.792,123.112z"/></g></g><g><g><path fill="#41464A" d="M126.792,195.806H56.879c-6.904,0-12.5-5.597-12.5-12.5s5.596-12.5,12.5-12.5h69.914     c6.904,0,12.5,5.597,12.5,12.5S133.696,195.806,126.792,195.806z"/></g></g><g><g><path fill="#41464A" d="M126.792,268.501H56.879c-6.904,0-12.5-5.597-12.5-12.5c0-6.903,5.596-12.5,12.5-12.5h69.914     c6.904,0,12.5,5.597,12.5,12.5C139.292,262.904,133.696,268.501,126.792,268.501z"/></g></g><g><g><path fill="#41464A" d="M126.792,341.195H56.879c-6.904,0-12.5-5.597-12.5-12.5s5.596-12.5,12.5-12.5h69.914     c6.904,0,12.5,5.597,12.5,12.5S133.696,341.195,126.792,341.195z"/></g></g><g><g><path fill="#41464A" d="M126.792,413.889H56.879c-6.904,0-12.5-5.597-12.5-12.5s5.596-12.5,12.5-12.5h69.914     c6.904,0,12.5,5.597,12.5,12.5S133.696,413.889,126.792,413.889z"/></g></g><circle fill="#E87A31" cx="256.887" cy="170.133" r="43.958"/><path fill="#E87A31" d="M331.875,330.35v55.476H181.9V330.35c0-41.411,33.576-74.988,74.988-74.988S331.875,288.939,331.875,330.35   z"/></g></svg>