<?xml version="1.0" ?><!DOCTYPE svg  PUBLIC '-//W3C//DTD SVG 1.1//EN'  'http://www.w3.org/Graphics/SVG/1.1/DTD/svg11.dtd'><svg xmlns="http://www.w3.org/2000/svg" xmlns:xlink="http://www.w3.org/1999/xlink" version="1.1" id="Layer_1" width="512px" height="512px" viewBox="0 0 512 512" enable-background="new 0 0 512 512" xml:space="preserve"><path d="M250.637,226.591c31.131,0,56.458-25.327,56.458-56.459c0-31.131-25.327-56.458-56.458-56.458s-56.458,25.327-56.458,56.458  C194.179,201.264,219.506,226.591,250.637,226.591z M250.637,138.674c17.346,0,31.458,14.112,31.458,31.458  c0,17.347-14.112,31.459-31.458,31.459s-31.458-14.112-31.458-31.459C219.179,152.786,233.291,138.674,250.637,138.674z   M250.637,242.862c-48.241,0-87.488,39.247-87.488,87.487v55.477c0,6.903,5.597,12.5,12.5,12.5h149.976  c6.903,0,12.5-5.597,12.5-12.5V330.35C338.125,282.109,298.878,242.862,250.637,242.862z M313.125,373.326H188.149V330.35  c0-34.456,28.032-62.487,62.488-62.487s62.488,28.031,62.488,62.487V373.326z M461.371,162.438c6.903,0,12.5-5.597,12.5-12.5V85.586  c0-6.903-5.597-12.5-12.5-12.5h-34.289C421.143,39.278,391.587,13.5,356.104,13.5H145.171c-39.748,0-72.085,32.338-72.085,72.086  v12.525H50.629c-6.903,0-12.5,5.597-12.5,12.5s5.597,12.5,12.5,12.5h22.457v47.694H50.629c-6.903,0-12.5,5.597-12.5,12.5  s5.597,12.5,12.5,12.5h22.457V243.5H50.629c-6.903,0-12.5,5.597-12.5,12.5s5.597,12.5,12.5,12.5h22.457v47.694H50.629  c-6.903,0-12.5,5.597-12.5,12.5s5.597,12.5,12.5,12.5h22.457v47.694H50.629c-6.903,0-12.5,5.597-12.5,12.5s5.597,12.5,12.5,12.5  h22.457v12.525c0,39.748,32.337,72.086,72.085,72.086h210.933c35.483,0,65.04-25.778,70.978-59.586h34.289  c6.903,0,12.5-5.597,12.5-12.5v-64.352c0-6.903-5.597-12.5-12.5-12.5h-33.182v-48.887h33.182c6.903,0,12.5-5.597,12.5-12.5v-64.352  c0-6.903-5.597-12.5-12.5-12.5h-33.182v-48.887H461.371z M448.871,137.438h-20.682V98.086h20.682V137.438z M356.104,473.5H145.171  c-25.963,0-47.085-21.123-47.085-47.086v-12.525h22.457c6.903,0,12.5-5.597,12.5-12.5s-5.597-12.5-12.5-12.5H98.085v-47.694h22.457  c6.903,0,12.5-5.597,12.5-12.5s-5.597-12.5-12.5-12.5H98.085V268.5h22.457c6.903,0,12.5-5.597,12.5-12.5s-5.597-12.5-12.5-12.5  H98.085v-47.694h22.457c6.903,0,12.5-5.597,12.5-12.5s-5.597-12.5-12.5-12.5H98.085v-47.694h22.457c6.903,0,12.5-5.597,12.5-12.5  s-5.597-12.5-12.5-12.5H98.085V85.586c0-25.963,21.123-47.086,47.085-47.086h210.933c25.963,0,47.085,21.123,47.085,47.086v340.828  C403.189,452.377,382.066,473.5,356.104,473.5z M448.871,374.563v39.352h-20.682v-39.352H448.871z M448.871,236.324v39.352h-20.682  v-39.352H448.871z"/></svg>